<svg aria-hidden="true" xmlns="http://www.w3.org/2000/svg" xmlns:xlink="http://www.w3.org/1999/xlink"><symbol viewBox="0 0 14 15" fill="none" id="account" xmlns="http://www.w3.org/2000/svg">
<path fill-rule="evenodd" clip-rule="evenodd" d="M7.00055 1.66634C5.71188 1.66634 4.66721 2.71101 4.66721 3.99967C4.66721 5.28834 5.71188 6.33301 7.00055 6.33301C8.28921 6.33301 9.33388 5.28834 9.33388 3.99967C9.33388 2.71101 8.28921 1.66634 7.00055 1.66634ZM3.33388 3.99967C3.33388 1.97463 4.9755 0.333008 7.00055 0.333008C9.02559 0.333008 10.6672 1.97463 10.6672 3.99967C10.6672 6.02472 9.02559 7.66634 7.00055 7.66634C4.9755 7.66634 3.33388 6.02472 3.33388 3.99967Z" fill="currentColor"/>
<path fill-rule="evenodd" clip-rule="evenodd" d="M3.06992 9.66634C2.60771 9.66634 2.24643 9.8914 2.09979 10.2148C1.89681 10.6623 1.71301 11.1951 1.66964 11.7005C1.65025 11.9264 1.74444 12.0928 1.87423 12.1735C2.56033 12.5997 4.15014 13.333 7.00055 13.333C9.85095 13.333 11.4408 12.5997 12.1269 12.1735C12.2567 12.0928 12.3508 11.9264 12.3315 11.7005C12.2881 11.1951 12.1043 10.6623 11.9013 10.2148C11.7547 9.8914 11.3934 9.66634 10.9312 9.66634H3.06992ZM0.885499 9.66404C1.2908 8.77039 2.19582 8.33301 3.06992 8.33301H10.9312C11.8053 8.33301 12.7103 8.77039 13.1156 9.66404C13.3484 10.1773 13.5982 10.8673 13.6599 11.5864C13.7161 12.2413 13.4439 12.9249 12.8304 13.3061C11.9281 13.8666 10.0936 14.6663 7.00055 14.6663C3.90748 14.6663 2.07301 13.8666 1.17066 13.3061C0.557149 12.9249 0.284988 12.2413 0.341191 11.5864C0.40291 10.8673 0.652708 10.1773 0.885499 9.66404Z" fill="currentColor"/>
</symbol><symbol viewBox="0 0 18 12" fill="none" id="arrow-left" xmlns="http://www.w3.org/2000/svg">
<path fill-rule="evenodd" clip-rule="evenodd" d="M6.20711 11.2071C5.81658 11.5976 5.18342 11.5976 4.79289 11.2071L0.292892 6.70711C-0.0976315 6.31658 -0.0976315 5.68342 0.292892 5.29289L4.79289 0.792893C5.18342 0.402369 5.81658 0.402369 6.20711 0.792893C6.59763 1.18342 6.59763 1.81658 6.20711 2.20711L3.41421 5L17 5C17.5523 5 18 5.44772 18 6C18 6.55228 17.5523 7 17 7L3.41421 7L6.20711 9.79289C6.59763 10.1834 6.59763 10.8166 6.20711 11.2071Z" fill="currentColor"/>
</symbol><symbol viewBox="0 0 18 12" fill="none" id="arrow-right" xmlns="http://www.w3.org/2000/svg">
<path fill-rule="evenodd" clip-rule="evenodd" d="M11.7929 0.792893C12.1834 0.402369 12.8166 0.402369 13.2071 0.792893L17.7071 5.29289C18.0976 5.68342 18.0976 6.31658 17.7071 6.70711L13.2071 11.2071C12.8166 11.5976 12.1834 11.5976 11.7929 11.2071C11.4024 10.8166 11.4024 10.1834 11.7929 9.79289L14.5858 7H1C0.447715 7 0 6.55228 0 6C0 5.44772 0.447715 5 1 5H14.5858L11.7929 2.20711C11.4024 1.81658 11.4024 1.18342 11.7929 0.792893Z" fill="currentColor"/>
</symbol><symbol viewBox="0 0 28 20" fill="none" id="braces" xmlns="http://www.w3.org/2000/svg">
<path d="M18 8.92534C18 8.63119 18.1295 8.35196 18.3541 8.16195L28 0V19C28 19.5523 27.5523 20 27 20H19C18.4477 20 18 19.5523 18 19V8.92534Z" fill="currentColor"/>
<path d="M0 8.92534C0 8.63119 0.129507 8.35196 0.354058 8.16195L10 0V19C10 19.5523 9.55228 20 9 20H1C0.447715 20 0 19.5523 0 19V8.92534Z" fill="currentColor"/>
</symbol><symbol viewBox="0 0 21 20" fill="none" id="cart" xmlns="http://www.w3.org/2000/svg">
<path fill-rule="evenodd" clip-rule="evenodd" d="M2.8798 2.75768C2.79028 2.75093 2.66604 2.75033 2.43306 2.75033H0.916667C0.410406 2.75033 0 2.33992 0 1.83366C0 1.3274 0.410406 0.916996 0.916667 0.916996H2.43306C2.4417 0.916996 2.45034 0.916995 2.45898 0.916994C2.65575 0.91697 2.85058 0.916946 3.01755 0.929526C3.20335 0.943526 3.41921 0.976408 3.64252 1.07602C3.9568 1.21621 4.22528 1.44203 4.41724 1.72764C4.55364 1.93058 4.62303 2.13761 4.66865 2.31827C4.70966 2.48061 4.74301 2.67256 4.77671 2.86642C4.77818 2.87494 4.77966 2.88345 4.78115 2.89197L4.99956 4.14787L16.9291 4.50099C17.3965 4.51481 17.8005 4.52676 18.1332 4.5634C18.4849 4.60213 18.8336 4.67496 19.168 4.85314C19.6748 5.12313 20.0844 5.545 20.3393 6.05956C20.5075 6.39915 20.5699 6.7498 20.5982 7.10246C20.625 7.4361 20.625 7.84027 20.625 8.30795V8.37555C20.625 8.81506 20.625 9.19632 20.6004 9.51247C20.5743 9.84775 20.5167 10.1808 20.3631 10.5071C20.1293 11.0037 19.7523 11.419 19.2804 11.6996C18.9704 11.8839 18.6445 11.9733 18.3133 12.0316C18.001 12.0865 17.6216 12.1232 17.1841 12.1656L8.26136 13.029C7.81293 13.0725 7.4244 13.1101 7.10024 13.1158C6.75679 13.1218 6.41246 13.0951 6.06676 12.9682C5.54832 12.7777 5.09924 12.4356 4.778 11.9863C4.5638 11.6867 4.44668 11.3618 4.36134 11.029C4.28079 10.715 4.21392 10.3304 4.13675 9.88658L2.97492 3.20609C2.935 2.97655 2.91312 2.85426 2.89114 2.76721C2.89036 2.76412 2.8896 2.76118 2.88887 2.7584C2.88601 2.75816 2.88298 2.75792 2.8798 2.75768ZM5.32019 5.99149L5.93719 9.53925C6.02181 10.0258 6.07681 10.3382 6.13719 10.5736C6.19478 10.7981 6.24033 10.8794 6.26935 10.92C6.37643 11.0697 6.52612 11.1838 6.69894 11.2473C6.74577 11.2645 6.83624 11.2868 7.06799 11.2827C7.31098 11.2785 7.62676 11.2486 8.11829 11.201L16.9745 10.3439C17.4543 10.2975 17.762 10.2671 17.9956 10.226C18.2181 10.1868 18.3011 10.1489 18.3435 10.1238C18.5008 10.0302 18.6264 9.89181 18.7044 9.72626C18.7254 9.68167 18.7551 9.59536 18.7726 9.37014C18.791 9.13371 18.7917 8.82451 18.7917 8.34246C18.7917 7.8305 18.791 7.50062 18.7708 7.24915C18.7515 7.00853 18.7187 6.91832 18.6964 6.87332C18.6115 6.7018 18.4749 6.56118 18.306 6.47118C18.2617 6.44757 18.1725 6.41214 17.9325 6.38572C17.6818 6.3581 17.3521 6.34765 16.8403 6.3325L5.32019 5.99149Z" fill="currentColor"/>
<path fill-rule="evenodd" clip-rule="evenodd" d="M7.79167 16.042C7.28541 16.042 6.875 16.4524 6.875 16.9587C6.875 17.4649 7.28541 17.8753 7.79167 17.8753C8.29793 17.8753 8.70833 17.4649 8.70833 16.9587C8.70833 16.4524 8.29793 16.042 7.79167 16.042ZM5.04167 16.9587C5.04167 15.4399 6.27288 14.2087 7.79167 14.2087C9.31045 14.2087 10.5417 15.4399 10.5417 16.9587C10.5417 18.4774 9.31045 19.7087 7.79167 19.7087C6.27288 19.7087 5.04167 18.4774 5.04167 16.9587Z" fill="currentColor"/>
<path fill-rule="evenodd" clip-rule="evenodd" d="M16.5 16.042C15.9937 16.042 15.5833 16.4524 15.5833 16.9587C15.5833 17.4649 15.9937 17.8753 16.5 17.8753C17.0063 17.8753 17.4167 17.4649 17.4167 16.9587C17.4167 16.4524 17.0063 16.042 16.5 16.042ZM13.75 16.9587C13.75 15.4399 14.9812 14.2087 16.5 14.2087C18.0188 14.2087 19.25 15.4399 19.25 16.9587C19.25 18.4774 18.0188 19.7087 16.5 19.7087C14.9812 19.7087 13.75 18.4774 13.75 16.9587Z" fill="currentColor"/>
</symbol><symbol viewBox="0 0 22 20" fill="none" id="checkout" xmlns="http://www.w3.org/2000/svg">
<path fill-rule="evenodd" clip-rule="evenodd" d="M3.25 2.75C2.69772 2.75 2.25 3.19771 2.25 3.75L2.25 5.25H19.75V3.75003C19.75 3.19774 19.3023 2.75003 18.75 2.75003L3.25 2.75ZM19.75 7.25H2.25V9.75H19.75V7.25ZM19.75 11.75H2.25L2.25 16.25C2.25 16.8023 2.69771 17.25 3.25 17.25L18.75 17.25C19.3023 17.25 19.75 16.8023 19.75 16.25V11.75ZM0.250001 3.75C0.250001 2.09315 1.59315 0.749995 3.25001 0.75L18.75 0.750029C20.4069 0.750032 21.75 2.09318 21.75 3.75003V16.25C21.75 17.9069 20.4069 19.25 18.75 19.25L3.25 19.25C1.59314 19.25 0.25 17.9069 0.25 16.25L0.250001 3.75Z" fill="currentColor"/>
</symbol><symbol viewBox="0 0 20 20" fill="none" id="clock" xmlns="http://www.w3.org/2000/svg">
<path d="M10.832 5.41732C10.832 4.95708 10.4589 4.58398 9.9987 4.58398C9.53846 4.58398 9.16536 4.95708 9.16536 5.41732V10.0007C9.16536 10.2217 9.25316 10.4336 9.40944 10.5899L11.9094 13.0899C12.2349 13.4153 12.7625 13.4153 13.088 13.0899C13.4134 12.7645 13.4134 12.2368 13.088 11.9114L10.832 9.65547V5.41732Z" fill="currentColor"/>
<path fill-rule="evenodd" clip-rule="evenodd" d="M9.9987 0.833984C4.93609 0.833984 0.832031 4.93804 0.832031 10.0007C0.832031 15.0633 4.93609 19.1673 9.9987 19.1673C15.0613 19.1673 19.1654 15.0633 19.1654 10.0007C19.1654 4.93804 15.0613 0.833984 9.9987 0.833984ZM2.4987 10.0007C2.4987 5.85851 5.85656 2.50065 9.9987 2.50065C14.1408 2.50065 17.4987 5.85851 17.4987 10.0007C17.4987 14.1428 14.1408 17.5006 9.9987 17.5006C5.85656 17.5006 2.4987 14.1428 2.4987 10.0007Z" fill="currentColor"/>
</symbol><symbol viewBox="0 0 16 14" fill="none" id="comments" xmlns="http://www.w3.org/2000/svg">
<path fill-rule="evenodd" clip-rule="evenodd" d="M14.6153 6.54557C14.5204 7.20339 14.2954 7.82861 13.9619 8.40355C13.9869 8.5459 13.9997 8.68979 13.9997 8.83429C13.9997 9.33617 13.8543 9.8165 13.5849 10.2529C13.4504 10.4707 13.4158 10.726 13.4025 10.8946C13.3873 11.0879 13.3924 11.2994 13.4062 11.5025C13.4217 11.7304 13.4497 11.9697 13.4818 12.1954C13.2216 12.1196 12.9395 12.0434 12.6704 11.9826C12.4465 11.9321 12.2174 11.8891 12.0099 11.8676C11.8289 11.849 11.5674 11.8345 11.3335 11.9101C10.8221 12.0754 10.2594 12.1676 9.66636 12.1676C8.96109 12.1676 8.31335 12.0424 7.74559 11.825C7.60903 11.8312 7.47147 11.8343 7.33301 11.8343C6.52993 11.8343 5.75701 11.7287 5.03385 11.5335C6.08516 12.7494 7.81828 13.501 9.66636 13.501C10.3883 13.501 11.0812 13.3901 11.7198 13.1864C11.7209 13.1865 11.723 13.1864 11.726 13.1864C11.7424 13.186 11.7879 13.1851 11.8729 13.1939C12.0067 13.2077 12.1786 13.2385 12.377 13.2833C12.7719 13.3724 13.2157 13.5038 13.5615 13.6136C14.2949 13.8464 15.0056 13.2064 14.8745 12.4621C14.8181 12.1418 14.7595 11.7508 14.7365 11.4122C14.7249 11.2419 14.7236 11.1021 14.7317 10.9995C14.7351 10.957 14.7394 10.9304 14.7421 10.9162C15.1172 10.2949 15.333 9.58744 15.333 8.83429C15.333 7.98526 15.0693 7.20995 14.6153 6.54557Z" fill="currentColor"/>
<path fill-rule="evenodd" clip-rule="evenodd" d="M3.73109 3.29943C2.83245 3.98662 2.33306 4.88871 2.33306 5.83398C2.33306 6.30534 2.45577 6.75932 2.68599 7.18147C2.77367 7.34226 2.79854 7.50812 2.80744 7.6204C2.81714 7.74283 2.8123 7.86867 2.80166 7.98633C2.78034 8.22191 2.72949 8.48884 2.66849 8.75174C2.59715 9.05927 2.50572 9.38724 2.41296 9.69518C2.76512 9.56719 3.15003 9.43601 3.51493 9.32956C3.80985 9.24352 4.10767 9.16886 4.37274 9.12695C4.60108 9.09084 4.93243 9.05536 5.2177 9.15405C5.85792 9.37555 6.57411 9.50065 7.33306 9.50065C8.76451 9.50065 10.0358 9.05621 10.935 8.36854C11.8337 7.68135 12.3331 6.77926 12.3331 5.83398C12.3331 4.88871 11.8337 3.98662 10.935 3.29943C10.0358 2.61176 8.76451 2.16732 7.33306 2.16732C5.90162 2.16732 4.63034 2.61176 3.73109 3.29943ZM2.92116 2.24028C4.07283 1.35959 5.63489 0.833984 7.33306 0.833984C9.03123 0.833984 10.5933 1.35959 11.745 2.24028C12.8973 3.12145 13.6664 4.38602 13.6664 5.83398C13.6664 7.28194 12.8973 8.54652 11.745 9.42769C10.5933 10.3084 9.03123 10.834 7.33306 10.834C6.43769 10.834 5.58244 10.688 4.80591 10.4224C4.80513 10.4246 4.74215 10.4184 4.58098 10.4439C4.39521 10.4733 4.15809 10.5308 3.88836 10.6095C3.35138 10.7662 2.74835 10.9878 2.28902 11.1666C1.49327 11.4763 0.682633 10.712 0.95074 9.89795C1.09284 9.46647 1.26043 8.92121 1.36966 8.45041C1.42468 8.21324 1.46039 8.01384 1.47375 7.86618C1.47839 7.81492 1.47958 7.77756 1.47932 7.7523C1.17246 7.16592 0.99973 6.51748 0.99973 5.83398C0.99973 4.38602 1.76887 3.12145 2.92116 2.24028Z" fill="currentColor"/>
</symbol><symbol viewBox="0 0 16 16" fill="none" id="cross" xmlns="http://www.w3.org/2000/svg">
<path fill-rule="evenodd" clip-rule="evenodd" d="M0.292893 0.292893C0.683417 -0.0976311 1.31658 -0.0976311 1.70711 0.292893L7.99999 6.58578L14.2929 0.292893C14.6834 -0.0976313 15.3166 -0.0976307 15.7071 0.292894C16.0976 0.683418 16.0976 1.31658 15.7071 1.70711L9.41421 7.99999L15.7071 14.2929C16.0976 14.6834 16.0976 15.3166 15.7071 15.7071C15.3166 16.0976 14.6834 16.0976 14.2929 15.7071L7.99999 9.41421L1.70711 15.7071C1.31658 16.0976 0.683418 16.0976 0.292894 15.7071C-0.0976307 15.3166 -0.0976313 14.6834 0.292893 14.2929L6.58578 7.99999L0.292893 1.70711C-0.0976311 1.31658 -0.0976311 0.683417 0.292893 0.292893Z" fill="currentColor"/>
</symbol><symbol viewBox="0 0 16 16" fill="none" id="delete" xmlns="http://www.w3.org/2000/svg">
<path fill-rule="evenodd" clip-rule="evenodd" d="M4.83203 2.49967C4.83203 1.5792 5.57822 0.833008 6.4987 0.833008H9.4987C10.4192 0.833008 11.1654 1.5792 11.1654 2.49967V2.83301H14.4987C14.8669 2.83301 15.1654 3.13148 15.1654 3.49967C15.1654 3.86786 14.8669 4.16634 14.4987 4.16634H13.6654V12.4997C13.6654 13.9724 12.4715 15.1663 10.9987 15.1663H4.9987C3.52594 15.1663 2.33203 13.9724 2.33203 12.4997V4.16634H1.4987C1.13051 4.16634 0.832031 3.86786 0.832031 3.49967C0.832031 3.13148 1.13051 2.83301 1.4987 2.83301H4.83203V2.49967ZM6.16536 2.83301H9.83203V2.49967C9.83203 2.31558 9.68279 2.16634 9.4987 2.16634H6.4987C6.3146 2.16634 6.16536 2.31558 6.16536 2.49967V2.83301ZM3.66536 4.16634V12.4997C3.66536 13.2361 4.26232 13.833 4.9987 13.833H10.9987C11.7351 13.833 12.332 13.2361 12.332 12.4997V4.16634H3.66536ZM7.9987 5.33301C8.36689 5.33301 8.66536 5.63148 8.66536 5.99967L8.66537 11.9997C8.66537 12.3679 8.36689 12.6663 7.9987 12.6663C7.63051 12.6663 7.33203 12.3679 7.33203 11.9997L7.33203 5.99967C7.33203 5.63148 7.63051 5.33301 7.9987 5.33301Z" fill="currentColor"/>
</symbol><symbol viewBox="0 0 16 15" fill="none" id="dislike" xmlns="http://www.w3.org/2000/svg">
<path fill-rule="evenodd" clip-rule="evenodd" d="M6.5663 13.3327C6.65931 13.3327 6.74553 13.2832 6.79257 13.2026L6.79667 13.1956L9.85417 8.23885L9.85417 1.66602L4.13029 1.66601C4.00747 1.66601 3.90125 1.75127 3.87464 1.87102L3.87232 1.88142L2.17235 8.52115C2.1412 8.68209 2.26454 8.83268 2.42951 8.83268L5.02083 8.83268C5.45495 8.83268 5.89423 8.97772 6.21404 9.28986C6.55025 9.61801 6.70612 10.088 6.60609 10.5943L6.12686 13.02C6.09486 13.1819 6.2188 13.3327 6.38375 13.3327L6.5663 13.3327ZM11.1875 1.66602L11.1875 7.76125L13.5498 7.76125C13.6936 7.76125 13.8106 7.64524 13.8117 7.50128C13.8117 7.50128 13.8117 7.50128 13.8117 7.50128L13.8542 1.92987C13.8553 1.78458 13.7377 1.66602 13.5923 1.66602L11.1875 1.66602ZM10.8929 9.09459L7.93945 13.8827C7.65257 14.3678 7.13068 14.666 6.5663 14.666L6.38375 14.666C5.37861 14.666 4.62399 13.7476 4.81881 12.7616L5.29804 10.3359C5.30657 10.2927 5.30104 10.2731 5.29971 10.2688C5.29823 10.264 5.29497 10.256 5.28274 10.244C5.25485 10.2168 5.17182 10.166 5.02083 10.166L2.42951 10.166C1.40886 10.166 0.650896 9.22077 0.872281 8.22461L0.87459 8.21421L2.57573 1.56996C2.74227 0.846228 3.38674 0.332681 4.13029 0.332681L13.5923 0.332682C14.478 0.332682 15.1942 1.0543 15.1875 1.94003C15.1875 1.94001 15.1875 1.94004 15.1875 1.94003L15.145 7.51146C15.1383 8.38765 14.4261 9.09459 13.5498 9.09459L10.8929 9.09459Z" fill="currentColor"/>
</symbol><symbol viewBox="0 0 8 5" fill="none" id="down-shevron" xmlns="http://www.w3.org/2000/svg">
<path fill-rule="evenodd" clip-rule="evenodd" d="M7.85355 0.146447C8.04882 0.341709 8.04882 0.658291 7.85355 0.853553L4.35355 4.35355C4.15829 4.54882 3.84171 4.54882 3.64645 4.35355L0.146447 0.853553C-0.0488157 0.658291 -0.0488157 0.341709 0.146447 0.146447C0.341709 -0.0488155 0.658291 -0.0488155 0.853553 0.146447L4 3.29289L7.14645 0.146447C7.34171 -0.0488155 7.65829 -0.0488155 7.85355 0.146447Z" fill="currentColor"/>
</symbol><symbol viewBox="0 0 19 16" fill="none" id="eyes" xmlns="http://www.w3.org/2000/svg">
<path d="M2.19923 5.09822C4.45266 3.21822 7.0469 2.16667 9.79039 2.16667C12.5339 2.16667 15.1281 3.21822 17.3815 5.09822C17.7349 5.39305 18.2604 5.34558 18.5553 4.99218C18.8501 4.63878 18.8026 4.11328 18.4492 3.81845C15.9435 1.72796 12.9816 0.5 9.79039 0.5C6.59918 0.5 3.63727 1.72796 1.13154 3.81845C0.778141 4.11328 0.730665 4.63878 1.0255 4.99218C1.32033 5.34558 1.84583 5.39305 2.19923 5.09822Z" fill="currentColor"/>
<path fill-rule="evenodd" clip-rule="evenodd" d="M3.41602 6.07419C4.91479 4.80886 7.0524 3.625 9.47786 3.625C11.9033 3.625 14.0409 4.80886 15.5397 6.07419C16.2952 6.71204 16.9147 7.39204 17.3525 7.99941C17.5709 8.30249 17.7531 8.5999 17.8842 8.87564C18.0047 9.12893 18.1237 9.44858 18.1237 9.77083C18.1237 10.0931 18.0047 10.4127 17.8842 10.666C17.7531 10.9418 17.5709 11.2392 17.3525 11.5423C16.9147 12.1496 16.2952 12.8296 15.5397 13.4675C14.0409 14.7328 11.9033 15.9167 9.47786 15.9167C7.0524 15.9167 4.91479 14.7328 3.41602 13.4675C2.66049 12.8296 2.04103 12.1496 1.60327 11.5423C1.38483 11.2392 1.20264 10.9418 1.07151 10.666C0.951065 10.4127 0.832031 10.0931 0.832031 9.77083C0.832031 9.44858 0.951065 9.12893 1.07151 8.87564C1.20264 8.5999 1.38483 8.30249 1.60327 7.99941C2.04103 7.39204 2.66049 6.71204 3.41602 6.07419ZM2.50461 9.77083C2.51304 9.79905 2.53249 9.85737 2.57666 9.95026C2.65367 10.1122 2.77846 10.3223 2.95535 10.5678C3.30825 11.0574 3.83291 11.6382 4.49117 12.194C5.81997 13.3158 7.58861 14.25 9.47786 14.25C11.3671 14.25 13.1358 13.3158 14.4646 12.194C15.1228 11.6382 15.6475 11.0574 16.0004 10.5678C16.1773 10.3223 16.3021 10.1122 16.3791 9.95026C16.4232 9.85738 16.4427 9.79905 16.4511 9.77083C16.4427 9.74261 16.4232 9.68428 16.3791 9.59141C16.3021 9.42947 16.1773 9.21934 16.0004 8.97392C15.6475 8.48428 15.1228 7.90343 14.4646 7.3477C14.1851 7.11173 13.8861 6.88407 13.5707 6.67166C13.6865 7.05945 13.7487 7.47038 13.7487 7.89583C13.7487 10.2545 11.8366 12.1667 9.47786 12.1667C7.11915 12.1667 5.20703 10.2545 5.20703 7.89583C5.20703 7.47038 5.26924 7.05945 5.38506 6.67166C5.06962 6.88407 4.77067 7.11174 4.49117 7.3477C3.83291 7.90343 3.30825 8.48428 2.95535 8.97392C2.77846 9.21934 2.65367 9.42947 2.57666 9.59141C2.53249 9.68429 2.51304 9.74261 2.50461 9.77083ZM6.8737 7.89583C6.8737 6.45759 8.03962 5.29167 9.47786 5.29167C10.9161 5.29167 12.082 6.45759 12.082 7.89583C12.082 9.33407 10.9161 10.5 9.47786 10.5C8.03962 10.5 6.8737 9.33407 6.8737 7.89583Z" fill="currentColor"/>
</symbol><symbol viewBox="0 0 16 16" fill="none" id="filter" xmlns="http://www.w3.org/2000/svg">
<path fill-rule="evenodd" clip-rule="evenodd" d="M11.666 6.33301C12.0342 6.33301 12.3327 6.63148 12.3327 6.99967V14.4997C12.3327 14.8679 12.0342 15.1663 11.666 15.1663C11.2978 15.1663 10.9993 14.8679 10.9993 14.4997L10.9993 6.99967C10.9993 6.63148 11.2978 6.33301 11.666 6.33301Z" fill="currentColor"/>
<path fill-rule="evenodd" clip-rule="evenodd" d="M11.666 0.833008C12.0342 0.833008 12.3327 1.13148 12.3327 1.49967V3.49967C12.3327 3.86786 12.0342 4.16634 11.666 4.16634C11.2978 4.16634 10.9993 3.86786 10.9993 3.49967V1.49967C10.9993 1.13148 11.2978 0.833008 11.666 0.833008Z" fill="currentColor"/>
<path fill-rule="evenodd" clip-rule="evenodd" d="M7.99935 4.83301C7.99935 3.72844 8.89478 2.83301 9.99935 2.83301H13.3327C14.4373 2.83301 15.3327 3.72844 15.3327 4.83301V5.66634C15.3327 6.77091 14.4373 7.66634 13.3327 7.66634H9.99935C8.89478 7.66634 7.99935 6.77091 7.99935 5.66634V4.83301ZM9.99935 4.16634C9.63116 4.16634 9.33268 4.46482 9.33268 4.83301V5.66634C9.33268 6.03453 9.63116 6.33301 9.99935 6.33301H13.3327C13.7009 6.33301 13.9993 6.03453 13.9993 5.66634V4.83301C13.9993 4.46482 13.7009 4.16634 13.3327 4.16634H9.99935Z" fill="currentColor"/>
<path fill-rule="evenodd" clip-rule="evenodd" d="M4.33268 11.833C4.70087 11.833 4.99935 12.1315 4.99935 12.4997V14.4997C4.99935 14.8679 4.70087 15.1663 4.33268 15.1663C3.96449 15.1663 3.66602 14.8679 3.66602 14.4997V12.4997C3.66602 12.1315 3.96449 11.833 4.33268 11.833Z" fill="currentColor"/>
<path fill-rule="evenodd" clip-rule="evenodd" d="M4.33268 0.833008C4.70087 0.833008 4.99935 1.13148 4.99935 1.49967V8.99967C4.99935 9.36786 4.70087 9.66634 4.33268 9.66634C3.96449 9.66634 3.66602 9.36786 3.66602 8.99967V1.49967C3.66602 1.13148 3.96449 0.833008 4.33268 0.833008Z" fill="currentColor"/>
<path fill-rule="evenodd" clip-rule="evenodd" d="M0.666016 10.333C0.666016 9.22844 1.56145 8.33301 2.66602 8.33301H5.99935C7.10392 8.33301 7.99935 9.22844 7.99935 10.333V11.1663C7.99935 12.2709 7.10392 13.1663 5.99935 13.1663H2.66602C1.56145 13.1663 0.666016 12.2709 0.666016 11.1663V10.333ZM2.66602 9.66634C2.29783 9.66634 1.99935 9.96482 1.99935 10.333V11.1663C1.99935 11.5345 2.29783 11.833 2.66602 11.833H5.99935C6.36754 11.833 6.66602 11.5345 6.66602 11.1663V10.333C6.66602 9.96482 6.36754 9.66634 5.99935 9.66634H2.66602Z" fill="currentColor"/>
</symbol><symbol viewBox="0 0 20 18" fill="none" id="hand-wash" xmlns="http://www.w3.org/2000/svg">
<path d="M19.6652 3.5929C19.4373 3.54188 19.2196 3.70013 19.1749 3.94005L18.6359 6.80289C18.3756 6.68046 18.1776 6.47031 17.9468 6.21843C17.6343 5.8773 17.2573 5.47418 16.6465 5.31879C16.5956 4.3545 16.2064 3.45216 15.5111 2.76443L14.1219 1.39107C13.3382 0.617092 12.253 0.199202 11.1507 0.254944L6.16827 0.489318C5.97745 0.498264 5.8171 0.635802 5.77928 0.823028C5.67511 1.33775 5.78499 1.85783 6.08893 2.2879C6.39249 2.71677 6.86651 3.00571 7.39022 3.07978L8.43392 3.22708C8.61295 3.25231 8.75334 3.36786 8.80908 3.53673C8.83513 3.61567 8.87662 3.81872 8.69716 3.99618L6.08921 6.57464C5.96897 6.46925 5.85225 6.35226 5.72925 6.2184C5.33335 5.78707 4.84058 5.24996 3.8925 5.24996C2.94441 5.24996 2.45168 5.78707 2.05574 6.2184C1.82453 6.47046 1.6259 6.68124 1.3643 6.80363L0.825242 3.94001C0.780476 3.70052 0.562782 3.5427 0.334931 3.59286C0.109502 3.64083 -0.0369814 3.87387 0.00817468 4.1138L2.30715 16.3263C2.46219 17.1512 3.14945 17.7499 3.94125 17.7499H16.0587C16.8505 17.7499 17.5378 17.1512 17.6928 16.3263L19.9918 4.1138C20.0371 3.87391 19.8906 3.64087 19.6652 3.5929ZM9.28314 4.58864C9.63267 4.24317 9.75435 3.73981 9.60013 3.2747C9.44509 2.80591 9.04267 2.47142 8.55033 2.40185L7.50705 2.25455C7.20514 2.21181 6.9435 2.05271 6.76975 1.80689C6.66233 1.6547 6.59803 1.48299 6.58014 1.30435L11.1899 1.08748C12.057 1.04557 12.918 1.37271 13.5361 1.98353L14.9253 3.35688C15.4496 3.87536 15.7487 4.54957 15.8085 5.27176C15.0571 5.37273 14.6292 5.83617 14.2791 6.2184C13.9218 6.60863 13.6394 6.91663 13.0596 6.91663C12.4798 6.91663 12.1974 6.60863 11.8401 6.2184C11.445 5.78707 10.9531 5.24996 10.0062 5.24996C9.05935 5.24996 8.56744 5.78707 8.17193 6.2184C7.81467 6.60863 7.53229 6.91663 6.95205 6.91663C6.94432 6.91663 6.93909 6.91382 6.93147 6.91374L9.28314 4.58864ZM11.1549 9.54088C10.9934 9.3769 10.7297 9.37526 10.5657 9.53764L7.4517 12.6164C7.26983 12.7966 6.97319 12.7958 6.79213 12.6164C6.70545 12.5309 6.65784 12.4174 6.65784 12.2974C6.65784 12.1797 6.70299 12.069 6.78561 11.984L9.90611 8.89874C10.0697 8.73721 10.0713 8.47311 9.90935 8.30956C9.74782 8.14557 9.48415 8.14393 9.32017 8.30632L6.20616 11.3851C6.20249 11.3887 6.19881 11.3924 6.19518 11.396L5.58362 12.0007C5.40175 12.1801 5.10511 12.1801 4.92405 12.0007C4.83737 11.9148 4.78937 11.8013 4.78976 11.6808C4.78976 11.5608 4.83737 11.4477 4.92405 11.3618L8.03763 8.28307C8.20123 8.12155 8.20283 7.85741 8.04088 7.69382C7.97115 7.623 7.88154 7.58855 7.78998 7.57843C8.22803 7.3853 8.52892 7.06234 8.7863 6.78156C9.14357 6.39132 9.42595 6.08332 10.0062 6.08332C10.586 6.08332 10.8684 6.39132 11.2257 6.78156C11.6208 7.21288 12.1127 7.74999 13.0596 7.74999C14.0064 7.74999 14.4984 7.21288 14.8935 6.78156C15.1717 6.47769 15.4091 6.22883 15.7723 6.13133C15.6534 6.71804 15.363 7.25761 14.9252 7.69058L9.9431 12.6163C9.76161 12.7962 9.46458 12.7962 9.2831 12.6163C9.19642 12.5309 9.1488 12.4174 9.1488 12.2973C9.1488 12.1768 9.19642 12.0633 9.2831 11.9774L11.1516 10.13C11.3152 9.9685 11.3168 9.70443 11.1549 9.54088ZM6.21788 7.61929C6.42956 7.69819 6.6685 7.74999 6.95201 7.74999C7.13807 7.74999 7.30217 7.72452 7.4558 7.68788C7.45459 7.68905 7.45291 7.68937 7.4517 7.69058L4.96066 10.1532C4.77796 10.3335 4.48214 10.3327 4.30109 10.1532C4.21441 10.0678 4.16679 9.95424 4.16679 9.8342C4.16679 9.71377 4.21441 9.60022 4.30109 9.51436L6.21788 7.61929ZM16.8759 16.1526C16.7981 16.565 16.4548 16.9166 16.0588 16.9166H3.94136C3.54547 16.9166 3.20203 16.565 3.1243 16.1526L1.51981 7.62909C2.03516 7.45226 2.37375 7.10476 2.66981 6.78199C3.02789 6.39175 3.31066 6.08336 3.89253 6.08336C4.47441 6.08336 4.75718 6.39179 5.11569 6.78199C5.22972 6.90624 5.3539 7.03827 5.49253 7.16468L3.71515 8.92194C3.46898 9.1653 3.33347 9.48963 3.33347 9.83424C3.33386 10.1789 3.46937 10.5028 3.71515 10.7458C3.83968 10.869 3.98371 10.9618 4.1371 11.0245C4.0191 11.2206 3.95644 11.4461 3.95644 11.6808C3.95605 12.0255 4.09195 12.3498 4.33812 12.5931C4.76616 13.0175 5.42249 13.0814 5.92096 12.7856C5.98565 12.9422 6.08171 13.0859 6.2062 13.2088C6.45889 13.4586 6.79049 13.5832 7.12213 13.5832C7.45377 13.5832 7.78537 13.4586 8.03767 13.2088L8.42791 12.823C8.4922 12.965 8.58295 13.0956 8.69728 13.2088C9.20267 13.7085 10.0238 13.7077 10.5291 13.2088L15.5112 8.28304C16.0952 7.70538 16.4649 6.97659 16.6013 6.18726C16.883 6.3075 17.0945 6.52152 17.3325 6.78156C17.6283 7.10406 17.9661 7.45179 18.4806 7.62878L16.8759 16.1526Z" fill="currentColor"/>
</symbol><symbol viewBox="0 0 16 12" fill="none" id="hanger" xmlns="http://www.w3.org/2000/svg">
<path d="M15.2224 8.73925C15.2224 8.73925 15.2224 8.73925 15.2224 8.73925L9.46156 5.13893C9.36112 5.07615 9.24504 5.04285 9.12661 5.04285H8.63205V4.77421C9.61015 4.49806 10.3291 3.59751 10.3291 2.53223C10.3291 1.24796 9.28426 0.203125 8 0.203125C6.7157 0.203125 5.6709 1.24796 5.6709 2.53223C5.6709 2.8813 5.95388 3.16428 6.30295 3.16428C6.65203 3.16428 6.93501 2.8813 6.93501 2.53223C6.93501 1.94499 7.41273 1.46723 8 1.46723C8.58723 1.46723 9.06496 1.94499 9.06496 2.53223C9.06496 3.11946 8.5872 3.59722 8 3.59722C7.65093 3.59722 7.36795 3.8802 7.36795 4.22927V5.04285H6.87339C6.75496 5.04285 6.63888 5.07615 6.53844 5.13893L0.777607 8.73925C0.290709 9.04361 0 9.56807 0 10.1423C0 11.0546 0.742212 11.7968 1.6545 11.7968H14.3455C15.2578 11.7968 16 11.0546 16 10.1423C16 9.56807 15.7093 9.04361 15.2224 8.73925V8.73925ZM14.3455 10.5327H1.6545C1.43924 10.5327 1.26411 10.3576 1.26411 10.1423C1.26411 10.0068 1.3327 9.88302 1.44758 9.81121L7.05463 6.30696H8.94534L14.5524 9.81121C14.6673 9.88302 14.7359 10.0068 14.7359 10.1423C14.7359 10.3576 14.5607 10.5327 14.3455 10.5327V10.5327Z" fill="currentColor"/>
</symbol><symbol viewBox="0 0 20 18" fill="none" id="heard" xmlns="http://www.w3.org/2000/svg">
<path fill-rule="evenodd" clip-rule="evenodd" d="M9.99907 15.5894C6.16651 13.4065 4.02897 11.2369 2.99533 9.35451C1.9374 7.42785 2.02971 5.80512 2.61675 4.65342C3.8234 2.28614 7.25473 1.52916 9.34537 4.17331L9.99902 5.00002L10.6527 4.17335C12.7437 1.52909 16.1752 2.2862 17.3819 4.65342C17.9689 5.80511 18.0612 7.42782 17.0032 9.35449C15.9694 11.2369 13.8318 13.4065 9.99907 15.5894ZM9.9991 2.42157C7.05809 -0.373102 2.71943 0.781932 1.13186 3.89654C0.260575 5.60588 0.248673 7.81515 1.53441 10.1567C2.80875 12.4775 5.3495 14.9271 9.59594 17.2742L9.99905 17.497L10.4022 17.2742C14.6488 14.9271 17.1896 12.4775 18.4641 10.1567C19.7499 7.81518 19.738 5.6059 18.8667 3.89654C17.2791 0.781873 12.9404 -0.37306 9.9991 2.42157Z" fill="currentColor"/>
</symbol><symbol viewBox="0 0 14 15" fill="none" id="home" xmlns="http://www.w3.org/2000/svg">
<path fill-rule="evenodd" clip-rule="evenodd" d="M7.52152 2.28077C7.17922 2.18809 6.81843 2.18809 6.47613 2.28077C6.11977 2.37726 5.77418 2.63005 4.78864 3.39657L3.05531 4.74472C2.42101 5.23806 2.20806 5.41103 2.05752 5.61456C1.91286 5.81015 1.8051 6.03049 1.73952 6.26476C1.67129 6.50853 1.66549 6.78283 1.66549 7.58639V11.9996C1.66549 12.5133 1.67273 12.6224 1.6942 12.6932C1.75883 12.9062 1.92557 13.073 2.13864 13.1376C2.20942 13.1591 2.31847 13.1663 2.83216 13.1663H3.24883C3.33412 13.1663 3.35265 13.1661 3.36487 13.1655C3.70734 13.1487 3.9812 12.8748 3.99803 12.5323C3.99863 12.5201 3.99883 12.5016 3.99883 12.4163V10.4996C3.99883 8.84278 5.34197 7.49963 6.99883 7.49963C8.65568 7.49963 9.99883 8.84278 9.99883 10.4996V12.4163C9.99883 12.5016 9.99903 12.5201 9.99963 12.5323C10.0165 12.8748 10.2903 13.1487 10.6328 13.1655C10.645 13.1661 10.6635 13.1663 10.7488 13.1663H11.1655C11.6792 13.1663 11.7882 13.1591 11.859 13.1376C12.0721 13.073 12.2388 12.9062 12.3035 12.6932C12.3249 12.6224 12.3322 12.5133 12.3322 11.9996V7.58639C12.3322 6.78283 12.3264 6.50853 12.2581 6.26476C12.1926 6.03049 12.0848 5.81015 11.9401 5.61456C11.7896 5.41103 11.5766 5.23806 10.9423 4.74472L9.20901 3.39657C8.22348 2.63005 7.87788 2.37726 7.52152 2.28077ZM6.12767 0.99378C6.69817 0.839313 7.29948 0.839313 7.86998 0.99378C8.51884 1.16946 9.08817 1.61272 9.91416 2.25581C9.95144 2.28484 9.98924 2.31427 10.0276 2.3441L11.7609 3.69225C11.7849 3.71089 11.8085 3.72926 11.8319 3.74739C12.3681 4.16417 12.739 4.45248 13.0121 4.8217C13.2532 5.14768 13.4328 5.51491 13.5421 5.90536C13.6659 6.34759 13.6657 6.81741 13.6655 7.49656C13.6655 7.5261 13.6655 7.55604 13.6655 7.58639V11.9996C13.6655 12.0279 13.6655 12.0558 13.6656 12.0835C13.666 12.4644 13.6664 12.7933 13.5794 13.0802C13.3855 13.7194 12.8853 14.2196 12.2461 14.4135C11.9592 14.5005 11.6302 14.5002 11.2494 14.4997C11.2217 14.4997 11.1937 14.4996 11.1655 14.4996L10.7349 14.4996C10.6714 14.4996 10.6169 14.4997 10.5674 14.4972C9.53995 14.4468 8.71838 13.6252 8.6679 12.5978C8.66547 12.5482 8.66548 12.4937 8.66549 12.4303L8.66549 10.4996C8.66549 9.57916 7.9193 8.83297 6.99883 8.83297C6.07835 8.83297 5.33216 9.57916 5.33216 10.4996L5.33216 12.4303C5.33218 12.4937 5.33219 12.5482 5.32975 12.5978C5.27928 13.6252 4.4577 14.4468 3.4303 14.4972C3.38074 14.4997 3.32623 14.4996 3.26279 14.4996L2.83216 14.4996C2.80392 14.4996 2.77596 14.4997 2.74828 14.4997C2.36743 14.5002 2.03849 14.5005 1.75159 14.4135C1.11239 14.2196 0.612181 13.7194 0.418281 13.0802C0.331252 12.7933 0.331643 12.4644 0.332095 12.0835C0.332128 12.0558 0.332162 12.0279 0.332162 11.9996V7.58639C0.332162 7.55604 0.332151 7.5261 0.332142 7.49655C0.331913 6.81741 0.331755 6.34759 0.455541 5.90536C0.564831 5.51491 0.744438 5.14768 0.98554 4.8217C1.25862 4.45248 1.62957 4.16416 2.1658 3.74739C2.18912 3.72926 2.21276 3.71089 2.23672 3.69225L3.97006 2.3441C4.00841 2.31427 4.04622 2.28483 4.0835 2.25581C4.90949 1.61272 5.47881 1.16946 6.12767 0.99378Z" fill="currentColor"/>
</symbol><symbol viewBox="0 0 16 15" fill="none" id="like" xmlns="http://www.w3.org/2000/svg">
<path fill-rule="evenodd" clip-rule="evenodd" d="M9.45324 1.66732C9.36022 1.66732 9.274 1.71676 9.22696 1.79736L9.22286 1.80438L6.16536 6.76115V13.334H11.8892C12.0121 13.334 12.1183 13.2487 12.1449 13.129L12.1472 13.1186L13.8472 6.47883C13.8783 6.3179 13.755 6.16732 13.59 6.16732H10.9987C10.5646 6.16732 10.1253 6.02228 9.80549 5.71014C9.46928 5.38199 9.31341 4.91203 9.41344 4.40572L9.89267 1.98001C9.92467 1.81806 9.80073 1.66732 9.63578 1.66732H9.45324ZM4.83203 13.334V7.23875H2.46972C2.32593 7.23875 2.20893 7.35476 2.20782 7.49872C2.20782 7.49872 2.20782 7.49872 2.20782 7.49872L2.16537 13.0701C2.16426 13.2154 2.2818 13.334 2.42721 13.334H4.83203ZM5.12663 5.90541L8.08008 1.11731C8.36696 0.632217 8.88885 0.333984 9.45324 0.333984H9.63578C10.6409 0.333984 11.3955 1.25237 11.2007 2.23844L10.7215 4.66415C10.713 4.70732 10.7185 4.72693 10.7198 4.73124C10.7213 4.73604 10.7246 4.74402 10.7368 4.75596C10.7647 4.78317 10.8477 4.83398 10.9987 4.83398H13.59C14.6107 4.83398 15.3686 5.77923 15.1473 6.77539L15.1449 6.78579L13.4438 13.43C13.2773 14.1537 12.6328 14.6673 11.8892 14.6673H2.42721C1.54152 14.6673 0.825291 13.9457 0.832079 13.06C0.832079 13.06 0.832079 13.06 0.832079 13.06L0.874528 7.48854C0.881245 6.61235 1.59339 5.90541 2.46972 5.90541H5.12663Z" fill="currentColor"/>
</symbol><symbol viewBox="0 0 22 20" fill="none" id="load-more" xmlns="http://www.w3.org/2000/svg">
<path fill-rule="evenodd" clip-rule="evenodd" d="M1.10156 0C1.65385 0 2.10156 0.447715 2.10156 1V5.43632C3.75959 2.20928 7.12154 0 11.0015 0C15.3572 0 19.0599 2.78413 20.4323 6.66675C20.6163 7.18747 20.3434 7.75879 19.8227 7.94284C19.302 8.12689 18.7306 7.85396 18.5466 7.33325C17.4479 4.22472 14.4832 2 11.0015 2C8.04152 2 5.45522 3.60799 4.0715 6H7.10153C7.65381 6 8.10153 6.44772 8.10153 7C8.10153 7.55228 7.65381 8 7.10153 8H1.10156C0.549278 8 0.101562 7.55228 0.101562 7V1C0.101562 0.447715 0.549278 0 1.10156 0Z" fill="currentColor"/>
<path fill-rule="evenodd" clip-rule="evenodd" d="M2.17859 12.0572C2.69931 11.8731 3.27063 12.146 3.45468 12.6668C4.55339 15.7753 7.51804 18 10.9997 18C13.9597 18 16.546 16.392 17.9298 14H14.8997C14.3475 14 13.8997 13.5523 13.8997 13C13.8997 12.4477 14.3475 12 14.8997 12H20.8997C21.452 12 21.8997 12.4477 21.8997 13V19C21.8997 19.5523 21.452 20 20.8997 20C20.3474 20 19.8997 19.5523 19.8997 19V14.5637C18.2417 17.7907 14.8797 20 10.9997 20C6.6441 20 2.94131 17.2159 1.569 13.3332C1.38495 12.8125 1.65788 12.2412 2.17859 12.0572Z" fill="currentColor"/>
</symbol><symbol viewBox="0 0 16 18" fill="none" id="location" xmlns="http://www.w3.org/2000/svg">
<path fill-rule="evenodd" clip-rule="evenodd" d="M8.0013 5.45768C7.08083 5.45768 6.33464 6.20387 6.33464 7.12435C6.33464 8.04482 7.08083 8.79102 8.0013 8.79102C8.92178 8.79102 9.66797 8.04482 9.66797 7.12435C9.66797 6.20387 8.92178 5.45768 8.0013 5.45768ZM4.66797 7.12435C4.66797 5.2834 6.16035 3.79102 8.0013 3.79102C9.84225 3.79102 11.3346 5.2834 11.3346 7.12435C11.3346 8.9653 9.84225 10.4577 8.0013 10.4577C6.16035 10.4577 4.66797 8.9653 4.66797 7.12435Z" fill="currentColor"/>
<path fill-rule="evenodd" clip-rule="evenodd" d="M8.0013 1.70768C4.98502 1.70768 2.58464 4.07107 2.58464 6.93204C2.58464 9.26439 3.98631 11.62 5.5185 13.4729C6.27068 14.3825 7.02499 15.1359 7.59169 15.662C7.74329 15.8027 7.88106 15.9268 8.0013 16.0328C8.12154 15.9268 8.25932 15.8027 8.41092 15.662C8.97762 15.1359 9.73193 14.3825 10.4841 13.4729C12.0163 11.62 13.418 9.26439 13.418 6.93204C13.418 4.07107 11.0176 1.70768 8.0013 1.70768ZM8.0013 17.1244C7.48561 17.779 7.48542 17.7788 7.48521 17.7786L7.48314 17.777L7.47839 17.7732L7.46225 17.7604C7.44857 17.7494 7.42913 17.7337 7.4043 17.7135C7.35466 17.673 7.28346 17.6141 7.19378 17.5381C7.01449 17.386 6.76091 17.1648 6.45779 16.8835C5.85262 16.3217 5.04443 15.5149 4.2341 14.535C2.64129 12.6089 0.917969 9.86835 0.917969 6.93204C0.917969 3.10188 4.11403 0.0410156 8.0013 0.0410156C11.8886 0.0410156 15.0846 3.10188 15.0846 6.93204C15.0846 9.86835 13.3613 12.6089 11.7685 14.535C10.9582 15.5149 10.15 16.3217 9.54481 16.8835C9.24169 17.1648 8.98812 17.386 8.80883 17.5381C8.71914 17.6141 8.64794 17.673 8.5983 17.7135C8.57348 17.7337 8.55404 17.7494 8.54036 17.7604L8.52421 17.7732L8.51947 17.777L8.51794 17.7782C8.51773 17.7784 8.51699 17.779 8.0013 17.1244ZM8.0013 17.1244L8.51699 17.779C8.2145 18.0173 7.78771 18.0169 7.48521 17.7786L8.0013 17.1244Z" fill="currentColor"/>
</symbol><symbol viewBox="0 0 18 18" fill="none" id="logout" xmlns="http://www.w3.org/2000/svg">
<path d="M12.7487 16.291C13.2089 16.291 13.582 16.6641 13.582 17.1243C13.582 17.5846 13.2089 17.9577 12.7487 17.9577H4.20703C1.90584 17.9577 0.0403609 16.0922 0.0403609 13.791V4.20768C0.0403609 1.90649 1.90584 0.0410156 4.20703 0.0410156H12.7487C13.2089 0.0410156 13.582 0.41411 13.582 0.874349C13.582 1.33459 13.2089 1.70768 12.7487 1.70768L4.20703 1.70768C2.82632 1.70768 1.70703 2.82697 1.70703 4.20768V13.791C1.70703 15.1717 2.82632 16.291 4.20703 16.291H12.7487Z" fill="currentColor"/>
<path d="M3.79036 8.99935C3.79036 9.22036 3.87816 9.43232 4.03444 9.58861L7.78444 13.3386C8.10988 13.664 8.63752 13.664 8.96295 13.3386C9.28839 13.0132 9.28839 12.4855 8.96295 12.1601L6.63554 9.83268L17.1237 9.83268C17.5839 9.83268 17.957 9.45959 17.957 8.99935C17.957 8.53911 17.5839 8.16602 17.1237 8.16602L6.63554 8.16602L8.96295 5.83861C9.28839 5.51317 9.28839 4.98553 8.96295 4.66009C8.63752 4.33466 8.10988 4.33466 7.78444 4.66009L4.03444 8.41009C3.87816 8.56637 3.79036 8.77834 3.79036 8.99935Z" fill="currentColor"/>
</symbol><symbol viewBox="0 0 18 15" fill="none" id="mail" xmlns="http://www.w3.org/2000/svg">
<path fill-rule="evenodd" clip-rule="evenodd" d="M17.9596 12.0006V2.83398C17.9596 1.45327 16.8403 0.333984 15.4596 0.333984L2.54297 0.333997C1.16226 0.333998 0.0429688 1.45329 0.0429688 2.834V12.0006C0.0429688 13.3814 1.16226 14.5006 2.54297 14.5006L15.4596 14.5006C16.8403 14.5006 17.9596 13.3814 17.9596 12.0006ZM16.293 4.71687V12.0006C16.293 12.4609 15.9199 12.834 15.4596 12.834H2.54297C2.08273 12.834 1.70964 12.4609 1.70964 12.0006L1.70964 4.71676L7.59561 8.71922C8.44401 9.29613 9.55876 9.29613 10.4072 8.71922L16.293 4.71687ZM16.2835 2.70783C16.2227 2.30745 15.877 2.00065 15.4596 2.00065L2.54297 2.00066C2.12566 2.00066 1.77999 2.30741 1.71914 2.70773L8.53279 7.34101C8.81559 7.53331 9.18718 7.53331 9.46998 7.34101L16.2835 2.70783Z" fill="currentColor"/>
</symbol><symbol viewBox="0 0 20 20" fill="none" id="no-bleach" xmlns="http://www.w3.org/2000/svg">
<path d="M19.8305 17.5812L17.9312 16.1773L14.0318 8.37058L19.8305 4.08454C20.0161 3.94782 20.0551 3.687 19.9184 3.50185C19.78 3.3167 19.5197 3.27889 19.3357 3.41478L13.654 7.61435L10.3727 1.04503C10.2311 0.762335 9.76888 0.762335 9.62728 1.04503L6.34593 7.61431L0.664248 3.41478C0.481126 3.27889 0.21992 3.31674 0.0815637 3.50185C-0.0551524 3.687 -0.0160907 3.94782 0.169453 4.08454L5.96821 8.37058L2.06879 16.1773L0.169453 17.5812C-0.0160907 17.7179 -0.0551524 17.9787 0.0815637 18.1639C0.16375 18.2741 0.28988 18.3327 0.416831 18.3327C0.503079 18.3327 0.590187 18.3063 0.664209 18.2509L1.24885 17.8188L0.877408 18.5624C0.813112 18.6915 0.819635 18.845 0.895298 18.968C0.971781 19.091 1.10608 19.166 1.2501 19.166H18.7498C18.8938 19.166 19.0281 19.091 19.1046 18.968C19.1803 18.845 19.1867 18.6914 19.1224 18.5624L18.751 17.8188L19.3356 18.2509C19.4097 18.3063 19.4968 18.3327 19.583 18.3327C19.71 18.3327 19.8361 18.2741 19.9183 18.1639C20.0551 17.9787 20.0161 17.7179 19.8305 17.5812ZM16.4513 15.0835L10.7005 10.8328L13.3476 8.87628L16.4513 15.0835ZM10 2.18149L12.9695 8.12024L10 10.3151L7.03049 8.12024L10 2.18149ZM6.65245 8.87632L9.29955 10.8329L3.54864 15.0835L6.65245 8.87632ZM1.92399 18.3327L2.72741 16.726L10 11.3506L17.2726 16.726L18.076 18.3327H1.92399Z" fill="currentColor"/>
</symbol><symbol viewBox="0 0 20 16" fill="none" id="no-ironing" xmlns="http://www.w3.org/2000/svg">
<path d="M19.9965 13.3616L18.4739 1.94612C18.364 1.12175 17.6536 0.5 16.8219 0.5H7.08324C6.85293 0.5 6.66656 0.686365 6.66656 0.916675C6.66656 1.14698 6.85293 1.33335 7.08324 1.33335H16.8219C17.2378 1.33335 17.5934 1.64421 17.6479 2.05639L18.2184 6.33329H15.0445L17.3362 4.58077C17.5193 4.4412 17.5535 4.17957 17.4143 3.99687C17.2736 3.81336 17.0123 3.78 16.83 3.91914L13.6731 6.33325H7.08324C6.84371 6.33325 6.60707 6.34587 6.3736 6.36923L3.16969 3.91914C2.98657 3.77996 2.72618 3.81336 2.5854 3.99687C2.44626 4.17957 2.48044 4.4412 2.66352 4.58077L5.2733 6.57645C2.24326 7.37941 0 10.1373 0 13.4165C0 13.6468 0.186365 13.8332 0.416675 13.8332H3.86558L2.66356 14.7524C2.48048 14.8919 2.4463 15.1536 2.58544 15.3363C2.66763 15.4437 2.79133 15.4999 2.91665 15.4999C3.00536 15.4999 3.09407 15.4718 3.16973 15.414L5.23693 13.8332H14.7629L16.8301 15.414C16.9058 15.4718 16.9945 15.4999 17.0832 15.4999C17.2085 15.4999 17.3322 15.4437 17.4144 15.3363C17.5535 15.1536 17.5194 14.8919 17.3362 14.7524L16.1342 13.8332H19.5831C19.7036 13.8332 19.8175 13.7815 19.8964 13.6912C19.9754 13.6005 20.012 13.4804 19.9965 13.3616ZM12.5834 7.16664L9.99988 9.14224L7.4164 7.1666H12.5834V7.16664ZM4.95529 12.9999H0.847178C1.04128 10.0611 3.27824 7.67808 6.14626 7.24402L9.31427 9.66657L4.95529 12.9999ZM6.32665 12.9999L9.99988 10.1909L13.6731 12.9999H6.32665ZM15.0445 12.9999L10.6855 9.66661L13.9548 7.16664H18.3299L19.107 12.9999H15.0445Z" fill="currentColor"/>
</symbol><symbol viewBox="0 0 20 20" fill="none" id="no-tumble-dry" xmlns="http://www.w3.org/2000/svg">
<path d="M19.1667 18.5775V1.42255L19.878 0.711299C20.0407 0.548525 20.0407 0.284853 19.878 0.122119C19.7152 -0.0406543 19.4515 -0.0406543 19.2888 0.122119L18.5775 0.833369H1.42255L0.71126 0.12208C0.548487 -0.0406934 0.284815 -0.0406934 0.12208 0.12208C-0.0406543 0.284853 -0.0406934 0.548525 0.12208 0.71126L0.833331 1.42251V18.5775L0.12208 19.2888C-0.0406934 19.4515 -0.0406934 19.7152 0.12208 19.8779C0.203447 19.9593 0.310088 20 0.41669 20C0.523291 20 0.629893 19.9593 0.711299 19.8779L1.42255 19.1667H18.5775L19.2888 19.8779C19.3701 19.9593 19.4768 20 19.5834 20C19.69 20 19.7966 19.9593 19.878 19.8779C20.0408 19.7152 20.0408 19.4515 19.878 19.2888L19.1667 18.5775ZM10 1.66669H17.7442L15.5812 3.82962C14.102 2.4904 12.1479 1.66669 10 1.66669C7.85212 1.66669 5.89798 2.4904 4.4188 3.82962L2.25587 1.66669H10ZM9.41084 10L4.41868 14.9921C3.22993 13.6645 2.50001 11.918 2.50001 10C2.50001 8.08204 3.22993 6.33552 4.41868 5.0079L9.41084 10ZM5.0079 4.41868C6.33552 3.22993 8.08205 2.50001 10 2.50001C11.918 2.50001 13.6645 3.22993 14.9921 4.41868L10 9.41083L5.0079 4.41868ZM10 10.5892L14.9921 15.5813C13.6645 16.7701 11.918 17.5 10 17.5C8.08205 17.5 6.33552 16.7701 5.0079 15.5813L10 10.5892ZM10.5892 10L15.5813 5.0079C16.7701 6.33552 17.5 8.08204 17.5 10C17.5 11.918 16.7701 13.6645 15.5813 14.9921L10.5892 10ZM1.66669 10V2.25587L3.82962 4.4188C2.4904 5.89798 1.66669 7.85212 1.66669 10C1.66669 12.1479 2.4904 14.102 3.82962 15.5812L1.66669 17.7441V10ZM10 18.3333H2.25587L4.4188 16.1704C5.89798 17.5096 7.85212 18.3333 10 18.3333C12.1479 18.3333 14.102 17.5096 15.5812 16.1704L17.7442 18.3333H10ZM18.3333 10V17.7441L16.1704 15.5812C17.5096 14.102 18.3333 12.1479 18.3333 10C18.3333 7.85212 17.5096 5.89798 16.1704 4.4188L18.3333 2.25587V10Z" fill="currentColor"/>
</symbol><symbol viewBox="0 0 18 18" fill="none" id="orders" xmlns="http://www.w3.org/2000/svg">
<path fill-rule="evenodd" clip-rule="evenodd" d="M4.0013 1.70768C3.08083 1.70768 2.33464 2.45387 2.33464 3.37435L2.33464 14.6243C2.33464 15.5448 3.08083 16.291 4.0013 16.291H14.0013C14.9218 16.291 15.668 15.5448 15.668 14.6243V3.37436C15.668 2.45389 14.9218 1.7077 14.0013 1.70769L4.0013 1.70768ZM0.667969 3.37435C0.667969 1.5334 2.16036 0.0410118 4.00131 0.0410156L14.0013 0.0410275C15.8423 0.0410297 17.3346 1.53341 17.3346 3.37436V14.6243C17.3346 16.4653 15.8422 17.9577 14.0013 17.9577H4.0013C2.16035 17.9577 0.667969 16.4653 0.667969 14.6243L0.667969 3.37435ZM12.7513 3.166C13.2115 3.166 13.5846 3.53909 13.5846 3.99933L13.5846 5.24933C13.5846 7.78063 11.5326 9.83266 9.0013 9.83266C6.46999 9.83266 4.41797 7.78063 4.41797 5.24933V3.99933C4.41797 3.53909 4.79106 3.166 5.2513 3.166C5.71154 3.166 6.08463 3.53909 6.08463 3.99933V5.24933C6.08463 6.86016 7.39047 8.166 9.0013 8.166C10.6121 8.166 11.918 6.86016 11.918 5.24933L11.918 3.99933C11.918 3.53909 12.2911 3.166 12.7513 3.166Z" fill="currentColor"/>
</symbol><symbol viewBox="0 0 12 20" fill="none" id="phone" xmlns="http://www.w3.org/2000/svg">
<path fill-rule="evenodd" clip-rule="evenodd" d="M3.08464 2.43424C2.39428 2.43424 1.83464 2.99389 1.83464 3.68424V16.3145C1.83464 17.0048 2.39428 17.5645 3.08464 17.5645H8.91797C9.60833 17.5645 10.168 17.0048 10.168 16.3145V3.68424C10.168 2.99389 9.60833 2.43424 8.91797 2.43424H8.84849L8.64551 2.92129C8.51611 3.2318 8.2127 3.43406 7.8763 3.43406H4.1263C3.78991 3.43406 3.4865 3.2318 3.35709 2.92129L3.15412 2.43424H3.08464ZM0.167969 3.68424C0.167969 2.07341 1.47381 0.767578 3.08464 0.767578H8.91797C10.5288 0.767578 11.8346 2.07341 11.8346 3.68424V16.3145C11.8346 17.9253 10.5288 19.2311 8.91797 19.2311H3.08464C1.4738 19.2311 0.167969 17.9253 0.167969 16.3145V3.68424Z" fill="currentColor"/>
</symbol><symbol viewBox="0 0 20 19" fill="none" id="reviews" xmlns="http://www.w3.org/2000/svg">
<path fill-rule="evenodd" clip-rule="evenodd" d="M8.475 1.83533C9.05395 0.500204 10.9473 0.500203 11.5263 1.83533L13.2776 5.87408L17.6599 6.29166C19.1086 6.42971 19.6937 8.23043 18.6028 9.19363L15.3029 12.1073L16.26 16.4041C16.5764 17.8246 15.0446 18.9375 13.7914 18.1976L10.0007 15.9596L6.20986 18.1976C4.95671 18.9375 3.42493 17.8246 3.74131 16.4041L4.69836 12.1073L1.39847 9.19363C0.307603 8.23043 0.892692 6.42971 2.34138 6.29166L6.72366 5.87408L8.475 1.83533ZM11.752 6.53566L10.0007 2.4969L8.24931 6.53566C8.00835 7.09133 7.48433 7.47205 6.8814 7.5295L2.49912 7.94708L5.79901 10.8608C6.25302 11.2616 6.45318 11.8776 6.3215 12.4688L5.36445 16.7657L9.15524 14.5277C9.67679 14.2197 10.3245 14.2197 10.8461 14.5277L14.6369 16.7657L13.6798 12.4688C13.5481 11.8776 13.7483 11.2616 14.2023 10.8608L17.5022 7.94708L13.1199 7.5295C12.517 7.47205 11.993 7.09133 11.752 6.53566Z" fill="currentColor"/>
</symbol><symbol viewBox="0 0 16 16" fill="none" id="search" xmlns="http://www.w3.org/2000/svg">
<path fill-rule="evenodd" clip-rule="evenodd" d="M7.2487 2.16634C4.44125 2.16634 2.16536 4.44223 2.16536 7.24967C2.16536 10.0571 4.44125 12.333 7.2487 12.333C8.65129 12.333 9.92014 11.7658 10.8406 10.8467C11.7627 9.92589 12.332 8.6549 12.332 7.24967C12.332 4.44223 10.0561 2.16634 7.2487 2.16634ZM0.832031 7.24967C0.832031 3.70585 3.70487 0.833008 7.2487 0.833008C10.7925 0.833008 13.6654 3.70585 13.6654 7.24967C13.6654 8.78248 13.1273 10.1905 12.2307 11.2939L14.9697 14.0278C15.2303 14.2879 15.2306 14.7101 14.9705 14.9706C14.7104 15.2312 14.2883 15.2316 14.0277 14.9715L11.2873 12.2362C10.1848 13.13 8.77892 13.6663 7.2487 13.6663C3.70487 13.6663 0.832031 10.7935 0.832031 7.24967Z" fill="currentColor"/>
</symbol><symbol viewBox="0 0 8 16" fill="none" id="social-facebook" xmlns="http://www.w3.org/2000/svg">
<path d="M7.70791 0.669067L5.8564 0.666016C3.77629 0.666016 2.43204 2.08274 2.43204 4.2755V5.93972H0.570429C0.409564 5.93972 0.279297 6.07368 0.279297 6.23893V8.65019C0.279297 8.81543 0.409712 8.94925 0.570429 8.94925H2.43204V15.0336C2.43204 15.1989 2.5623 15.3327 2.72317 15.3327H5.15204C5.3129 15.3327 5.44317 15.1987 5.44317 15.0336V8.94925H7.61983C7.78069 8.94925 7.91096 8.81543 7.91096 8.65019L7.91185 6.23893C7.91185 6.15959 7.8811 6.0836 7.82659 6.02745C7.77208 5.9713 7.69781 5.93972 7.62057 5.93972H5.44317V4.52894C5.44317 3.85087 5.60047 3.50664 6.46035 3.50664L7.70761 3.50618C7.86833 3.50618 7.99859 3.37221 7.99859 3.20712V0.968129C7.99859 0.803187 7.86848 0.669372 7.70791 0.669067Z" fill="currentColor"/>
</symbol><symbol viewBox="0 0 14 14" fill="none" id="social-google" xmlns="http://www.w3.org/2000/svg">
<path d="M7.1401 6.00254H13.7237C13.7964 6.40815 13.8327 6.7956 13.8327 7.16488C13.8327 8.47858 13.5572 9.65152 13.0063 10.6837C12.4554 11.7159 11.6699 12.5226 10.6498 13.1038C9.62977 13.6849 8.45985 13.9755 7.1401 13.9755C6.18964 13.9755 5.28458 13.7924 4.42493 13.4261C3.56528 13.0599 2.82368 12.565 2.20012 11.9414C1.57657 11.3179 1.08167 10.5763 0.715407 9.7166C0.349146 8.85695 0.166016 7.95189 0.166016 7.00143C0.166016 6.05097 0.349146 5.14591 0.715407 4.28626C1.08167 3.4266 1.57657 2.685 2.20012 2.06145C2.82368 1.4379 3.56528 0.942995 4.42493 0.576735C5.28458 0.210474 6.18964 0.0273438 7.1401 0.0273438C8.95627 0.0273438 10.5151 0.63576 11.8167 1.85259L9.91884 3.67784C9.17421 2.95743 8.24796 2.59722 7.1401 2.59722C6.35915 2.59722 5.63722 2.79397 4.97432 3.18748C4.31142 3.58098 3.78624 4.11523 3.3988 4.79024C3.01135 5.46525 2.81762 6.20231 2.81762 7.00143C2.81762 7.80054 3.01135 8.5376 3.3988 9.21261C3.78624 9.88762 4.31142 10.4219 4.97432 10.8154C5.63722 11.2089 6.35915 11.4056 7.1401 11.4056C7.66679 11.4056 8.1511 11.333 8.59304 11.1877C9.03497 11.0424 9.3982 10.8608 9.68274 10.6428C9.96727 10.4249 10.2155 10.1767 10.4274 9.89822C10.6393 9.61974 10.7951 9.35639 10.895 9.10818C10.9949 8.85997 11.063 8.62387 11.0993 8.39988H7.1401V6.00254Z" fill="currentColor"/>
</symbol><symbol viewBox="0 0 14 14" fill="none" id="social-instagram" xmlns="http://www.w3.org/2000/svg">
<path d="M13.6543 4.25402C13.623 3.54557 13.5085 3.05852 13.3444 2.63648C13.1751 2.18849 12.9146 1.78741 12.5733 1.45399C12.2399 1.11539 11.8362 0.852274 11.3934 0.685616C10.9689 0.521501 10.4844 0.406936 9.77596 0.3757C9.06221 0.341819 8.83563 0.333984 7.02538 0.333984C5.21513 0.333984 4.98855 0.341819 4.27745 0.373055C3.569 0.40429 3.08195 0.518957 2.66001 0.68297C2.21193 0.852274 1.81085 1.11274 1.47743 1.45399C1.13882 1.78741 0.875813 2.19114 0.709053 2.63393C0.544938 3.05852 0.430373 3.54292 0.399137 4.25137C0.365256 4.96512 0.357422 5.1917 0.357422 7.00195C0.357422 8.8122 0.365256 9.03879 0.396492 9.74988C0.427728 10.4583 0.542394 10.9454 0.706509 11.3674C0.875813 11.8154 1.13882 12.2165 1.47743 12.5499C1.81085 12.8885 2.21457 13.1516 2.65737 13.3183C3.08195 13.4824 3.56636 13.597 4.27491 13.6282C4.9859 13.6595 5.21259 13.6673 7.02284 13.6673C8.83308 13.6673 9.05967 13.6595 9.77077 13.6282C10.4792 13.597 10.9663 13.4824 11.3882 13.3183C12.2843 12.9718 12.9927 12.2634 13.3392 11.3674C13.5032 10.9428 13.6178 10.4583 13.6491 9.74988C13.6803 9.03879 13.6882 8.8122 13.6882 7.00195C13.6882 5.1917 13.6855 4.96512 13.6543 4.25402ZM12.4536 9.69779C12.4249 10.349 12.3155 10.7006 12.2243 10.935C12.0003 11.5159 11.5393 11.9769 10.9584 12.2009C10.724 12.2921 10.3698 12.4015 9.72122 12.4301C9.01795 12.4614 8.80704 12.4691 7.02803 12.4691C5.24902 12.4691 5.03545 12.4614 4.33473 12.4301C3.68357 12.4015 3.33194 12.2921 3.09752 12.2009C2.80846 12.0941 2.54535 11.9248 2.33178 11.7034C2.11039 11.4872 1.94108 11.2267 1.83425 10.9377C1.74309 10.7032 1.63371 10.349 1.60512 9.70044C1.57378 8.99717 1.56605 8.78616 1.56605 7.00714C1.56605 5.22813 1.57378 5.01457 1.60512 4.31395C1.63371 3.66278 1.74309 3.31115 1.83425 3.07673C1.94108 2.78757 2.11039 2.52456 2.33443 2.31089C2.55053 2.08949 2.811 1.92019 3.10016 1.81346C3.33458 1.7223 3.68886 1.61292 4.33738 1.58423C5.04064 1.55299 5.25166 1.54516 7.03057 1.54516C8.81223 1.54516 9.02314 1.55299 9.72386 1.58423C10.375 1.61292 10.7267 1.7223 10.9611 1.81346C11.2501 1.92019 11.5133 2.08949 11.7268 2.31089C11.9482 2.5271 12.1175 2.78757 12.2243 3.07673C12.3155 3.31115 12.4249 3.66532 12.4536 4.31395C12.4848 5.01721 12.4926 5.22813 12.4926 7.00714C12.4926 8.78616 12.4848 8.99453 12.4536 9.69779Z" fill="currentColor"/>
<path d="M7.02538 3.5768C5.13445 3.5768 3.60023 5.11092 3.60023 7.00196C3.60023 8.893 5.13445 10.4271 7.02538 10.4271C8.91641 10.4271 10.4505 8.893 10.4505 7.00196C10.4505 5.11092 8.91641 3.5768 7.02538 3.5768ZM7.02538 9.22377C5.79864 9.22377 4.80357 8.2288 4.80357 7.00196C4.80357 5.77511 5.79864 4.78015 7.02538 4.78015C8.25222 4.78015 9.24719 5.77511 9.24719 7.00196C9.24719 8.2288 8.25222 9.22377 7.02538 9.22377Z" fill="currentColor"/>
<path d="M11.3857 3.44138C11.3857 3.88296 11.0276 4.241 10.586 4.241C10.1444 4.241 9.78635 3.88296 9.78635 3.44138C9.78635 2.99971 10.1444 2.64177 10.586 2.64177C11.0276 2.64177 11.3857 2.99971 11.3857 3.44138Z" fill="currentColor"/>
</symbol><symbol viewBox="0 0 14 14" fill="none" id="social-linkedin" xmlns="http://www.w3.org/2000/svg">
<path d="M13.664 13.6673L13.6673 13.6668V8.77677C13.6673 6.38454 13.1523 4.54176 10.3557 4.54176C9.01121 4.54176 8.10898 5.27954 7.74065 5.97899H7.70176V4.7651H5.05009V13.6668H7.8112V9.25899C7.8112 8.09843 8.0312 6.97621 9.46843 6.97621C10.8845 6.97621 10.9057 8.30065 10.9057 9.33343V13.6673H13.664Z" fill="currentColor"/>
<path d="M0.553981 4.76565H3.31843V13.6673H0.553981V4.76565Z" fill="currentColor"/>
<path d="M1.9351 0.333984C1.05121 0.333984 0.333984 1.05121 0.333984 1.9351C0.333984 2.81898 1.05121 3.55121 1.9351 3.55121C2.81898 3.55121 3.53621 2.81898 3.53621 1.9351C3.53565 1.05121 2.81843 0.333984 1.9351 0.333984Z" fill="currentColor"/>
</symbol><symbol viewBox="0 0 18 18" fill="none" id="social-messenger" xmlns="http://www.w3.org/2000/svg">
<path d="M9.0013 0.666016C4.39922 0.666016 0.667969 4.12018 0.667969 8.38164C0.667969 10.8098 1.87943 12.9754 3.77318 14.39V17.3327L6.61068 15.7754C7.36797 15.9848 8.17005 16.0983 9.0013 16.0983C13.6034 16.0983 17.3346 12.6441 17.3346 8.38268C17.3346 4.12122 13.6034 0.666016 9.0013 0.666016ZM9.82943 11.0566L7.70755 8.7931L3.56693 11.0566L8.12214 6.22122L10.2961 8.48477L14.3846 6.22122L9.82943 11.0566Z" fill="currentColor"/>
</symbol><symbol viewBox="0 0 12 16" fill="none" id="social-pinterest" xmlns="http://www.w3.org/2000/svg">
<path d="M6.20093 0.666016C2.15211 0.666627 0 3.2425 0 6.0512C0 7.3535 0.732961 8.97847 1.90656 9.49364C2.24135 9.64336 2.19704 9.46064 2.48505 8.36674C2.50782 8.27568 2.49613 8.19684 2.42228 8.1119C0.744653 6.18504 2.09488 2.22376 5.96154 2.22376C11.5575 2.22376 10.5119 9.91287 6.93512 9.91287C6.01323 9.91287 5.32643 9.19419 5.54367 8.30501C5.80707 7.24594 6.32279 6.10743 6.32279 5.34414C6.32279 3.42033 3.43648 3.70573 3.43648 6.25471C3.43648 7.04244 3.71711 7.57411 3.71711 7.57411C3.71711 7.57411 2.78845 11.2995 2.61613 11.9956C2.32443 13.1738 2.65552 15.0811 2.68445 15.2455C2.70229 15.3359 2.80445 15.3647 2.86169 15.2901C2.95338 15.1709 4.0759 13.5808 4.39038 12.4313C4.50485 12.0127 4.97441 10.3138 4.97441 10.3138C5.28396 10.8687 6.17632 11.3331 7.12713 11.3331C9.95559 11.3331 12 8.86419 12 5.80064C11.9902 2.8636 9.45895 0.666016 6.20093 0.666016V0.666016Z" fill="currentColor"/>
</symbol><symbol viewBox="0 0 14 12" fill="none" id="social-twitter" xmlns="http://www.w3.org/2000/svg">
<path d="M14 1.84887C13.4847 2.0675 12.9318 2.21577 12.3509 2.28196C12.9441 1.94186 13.3981 1.4024 13.6133 0.761582C13.0569 1.07654 12.4428 1.30524 11.7884 1.42922C11.2644 0.893947 10.519 0.560547 9.69227 0.560547C8.1062 0.560547 6.82018 1.79192 6.82018 3.30978C6.82018 3.52505 6.84555 3.73531 6.89455 3.93637C4.50801 3.82159 2.39178 2.72676 0.975426 1.06313C0.727841 1.46858 0.586994 1.941 0.586994 2.4453C0.586994 3.39941 1.0944 4.24127 1.86427 4.7338C1.3936 4.71873 0.950926 4.59476 0.563386 4.38869V4.42303C0.563386 5.75492 1.55371 6.86651 2.86682 7.1195C2.62624 7.18149 2.37255 7.21583 2.11009 7.21583C1.92464 7.21583 1.74529 7.19824 1.56944 7.16473C1.93511 8.25789 2.99543 9.05283 4.25171 9.07463C3.26926 9.81178 2.03048 10.2499 0.684995 10.2499C0.453171 10.2499 0.224824 10.2365 0 10.2122C1.27114 10.9937 2.78024 11.4494 4.40218 11.4494C9.68532 11.4494 12.5732 7.2594 12.5732 3.62559L12.5635 3.26959C13.1278 2.88423 13.6159 2.40007 14 1.84887Z" fill="currentColor"/>
</symbol><symbol viewBox="0 0 16 12" fill="none" id="social-youtube" xmlns="http://www.w3.org/2000/svg">
<path fill-rule="evenodd" clip-rule="evenodd" d="M14.2602 0.74304C14.9455 0.92761 15.4859 1.46789 15.6703 2.15331C16.0131 3.40526 15.9999 6.01486 15.9999 6.01486C15.9999 6.01486 15.9999 8.61117 15.6705 9.86323C15.4859 10.5485 14.9456 11.0889 14.2602 11.2734C13.0081 11.603 7.99997 11.603 7.99997 11.603C7.99997 11.603 3.00487 11.603 1.73974 11.2603C1.05432 11.0758 0.514036 10.5354 0.329466 9.85005C0 8.61117 0 6.00168 0 6.00168C0 6.00168 0 3.40526 0.329466 2.15331C0.513914 1.46801 1.0675 0.914426 1.73962 0.729979C2.99169 0.400391 7.99984 0.400391 7.99984 0.400391C7.99984 0.400391 13.0081 0.400391 14.2602 0.74304ZM10.5699 6.0017L6.40525 8.40039V3.60302L10.5699 6.0017Z" fill="currentColor"/>
</symbol><symbol viewBox="0 0 20 19" fill="none" id="star" xmlns="http://www.w3.org/2000/svg">
<path fill-rule="evenodd" clip-rule="evenodd" d="M8.475 1.83533C9.05395 0.500204 10.9473 0.500203 11.5263 1.83533L13.2776 5.87408L17.6599 6.29166C19.1086 6.42971 19.6937 8.23043 18.6028 9.19363L15.3029 12.1073L16.26 16.4041C16.5764 17.8246 15.0446 18.9375 13.7914 18.1976L10.0007 15.9596L6.20986 18.1976C4.95671 18.9375 3.42493 17.8246 3.74131 16.4041L4.69836 12.1073L1.39847 9.19363C0.307603 8.23043 0.892692 6.42971 2.34138 6.29166L6.72366 5.87408L8.475 1.83533ZM11.752 6.53566L10.0007 2.4969L8.24931 6.53566C8.00835 7.09133 7.48433 7.47205 6.8814 7.5295L2.49912 7.94708L5.79901 10.8608C6.25302 11.2616 6.45318 11.8776 6.3215 12.4688L5.36445 16.7657L9.15524 14.5277C9.67679 14.2197 10.3245 14.2197 10.8461 14.5277L14.6369 16.7657L13.6798 12.4688C13.5481 11.8776 13.7483 11.2616 14.2023 10.8608L17.5022 7.94708L13.1199 7.5295C12.517 7.47205 11.993 7.09133 11.752 6.53566Z" fill="currentColor"/>
</symbol><symbol viewBox="0 0 22 22" fill="none" id="upload" xmlns="http://www.w3.org/2000/svg">
<path fill-rule="evenodd" clip-rule="evenodd" d="M10.2929 0.542893C10.6834 0.152369 11.3166 0.152369 11.7071 0.542893L16.2071 5.04289C16.5976 5.43342 16.5976 6.06658 16.2071 6.45711C15.8166 6.84763 15.1834 6.84763 14.7929 6.45711L12 3.66421V16.25C12 16.8023 11.5523 17.25 11 17.25C10.4477 17.25 10 16.8023 10 16.25V3.66421L7.20711 6.45711C6.81658 6.84763 6.18342 6.84763 5.79289 6.45711C5.40237 6.06658 5.40237 5.43342 5.79289 5.04289L10.2929 0.542893ZM1.25 13C1.80228 13 2.25 13.4477 2.25 14V17.75C2.25 18.8546 3.14543 19.75 4.25 19.75H17.75C18.8546 19.75 19.75 18.8546 19.75 17.75V14C19.75 13.4477 20.1977 13 20.75 13C21.3023 13 21.75 13.4477 21.75 14V17.75C21.75 19.9591 19.9591 21.75 17.75 21.75H4.25C2.04086 21.75 0.25 19.9591 0.25 17.75V14C0.25 13.4477 0.697715 13 1.25 13Z" fill="currentColor"/>
</symbol></svg>